<svg width="20" height="20" viewBox="0 0 20 20" fill="none" xmlns="http://www.w3.org/2000/svg">
<g clip-path="url(#clip0_452_536)">
<path d="M8.33317 15.8334V11.6668H11.6665V15.8334C11.6665 16.2918 12.0415 16.6668 12.4998 16.6668H14.9998C15.4582 16.6668 15.8332 16.2918 15.8332 15.8334V10.0001H17.2498C17.6332 10.0001 17.8165 9.5251 17.5248 9.2751L10.5582 3.0001C10.2415 2.71676 9.75817 2.71676 9.44151 3.0001L2.47484 9.2751C2.1915 9.5251 2.3665 10.0001 2.74984 10.0001H4.1665V15.8334C4.1665 16.2918 4.5415 16.6668 4.99984 16.6668H7.49984C7.95817 16.6668 8.33317 16.2918 8.33317 15.8334Z" fill="white"/>
</g>
<defs>
<clipPath id="clip0_452_536">
<rect width="20" height="20" fill="white"/>
</clipPath>
</defs>
</svg>
