<svg width="20" height="20" viewBox="0 0 20 20" fill="none" xmlns="http://www.w3.org/2000/svg">
<g clip-path="url(#clip0_452_608)">
<path d="M9.99984 1.66675C6.77484 1.66675 4.1665 4.27508 4.1665 7.50008C4.1665 10.9751 7.84984 15.7667 9.3665 17.5917C9.69984 17.9917 10.3082 17.9917 10.6415 17.5917C12.1498 15.7667 15.8332 10.9751 15.8332 7.50008C15.8332 4.27508 13.2248 1.66675 9.99984 1.66675ZM9.99984 9.58342C8.84984 9.58342 7.9165 8.65008 7.9165 7.50008C7.9165 6.35008 8.84984 5.41675 9.99984 5.41675C11.1498 5.41675 12.0832 6.35008 12.0832 7.50008C12.0832 8.65008 11.1498 9.58342 9.99984 9.58342Z" fill="white"/>
</g>
<defs>
<clipPath id="clip0_452_608">
<rect width="20" height="20" fill="white"/>
</clipPath>
</defs>
</svg>
