<svg width="17" height="21" viewBox="0 0 17 21" fill="none" xmlns="http://www.w3.org/2000/svg">
<circle cx="8.57881" cy="5.77803" r="4.77803" stroke="#01384D" stroke-width="1.5" stroke-linecap="round" stroke-linejoin="round"/>
<path fill-rule="evenodd" clip-rule="evenodd" d="M1.00002 17.2013C0.998732 16.8654 1.07385 16.5336 1.2197 16.2311C1.67736 15.3157 2.96798 14.8306 4.03892 14.6109C4.81128 14.4461 5.59431 14.336 6.38217 14.2814C7.84084 14.1533 9.30793 14.1533 10.7666 14.2814C11.5544 14.3366 12.3374 14.4467 13.1099 14.6109C14.1808 14.8306 15.4714 15.27 15.9291 16.2311C16.2224 16.8479 16.2224 17.5639 15.9291 18.1807C15.4714 19.1418 14.1808 19.5812 13.1099 19.7917C12.3384 19.9633 11.5551 20.0766 10.7666 20.1304C9.57937 20.231 8.38659 20.2494 7.19681 20.1853C6.92221 20.1853 6.65677 20.1853 6.38217 20.1304C5.59663 20.0772 4.81632 19.964 4.04807 19.7917C2.96798 19.5812 1.68652 19.1418 1.2197 18.1807C1.0746 17.8746 0.999552 17.54 1.00002 17.2013Z" stroke="#01384D" stroke-width="1.5" stroke-linecap="round" stroke-linejoin="round"/>
</svg>
