<svg width="16" height="16" viewBox="0 0 16 16" fill="none" xmlns="http://www.w3.org/2000/svg">
<path d="M15.4917 12.9917L11.3751 8.875L9.6084 10.6417L13.7251 14.7583C14.2167 15.25 15.0084 15.25 15.4917 14.7583C15.9751 14.2667 15.9751 13.475 15.4917 12.9917Z" fill="white"/>
<path d="M12.7084 6.33325C14.3167 6.33325 15.625 5.02492 15.625 3.41658C15.625 2.93325 15.4917 2.48325 15.2834 2.08325L13.0334 4.33325L11.7917 3.09159L14.0417 0.841585C13.6417 0.633252 13.1917 0.499919 12.7084 0.499919C11.1 0.499919 9.7917 1.80825 9.7917 3.41658C9.7917 3.75825 9.85837 4.08325 9.9667 4.38325L8.42503 5.92492L6.9417 4.44158C7.2667 4.11658 7.2667 3.59159 6.9417 3.26659L6.35003 2.67492L8.1167 0.908252C7.1417 -0.066748 5.55837 -0.066748 4.58337 0.908252L2.23337 3.26659C1.90837 3.59159 1.90837 4.11658 2.23337 4.44158L2.82503 5.03325H0.708366C0.550033 5.03325 0.400033 5.09158 0.291699 5.20825C0.0583659 5.44158 0.0583659 5.80825 0.291699 6.04158L2.40837 8.15825C2.6417 8.39158 3.00837 8.39158 3.2417 8.15825C3.35003 8.04992 3.4167 7.89992 3.4167 7.74158V5.62492L4.00003 6.20825C4.32503 6.53325 4.85003 6.53325 5.17503 6.20825L6.65837 7.69158L1.3667 12.9833C0.875033 13.4749 0.875033 14.2666 1.3667 14.7499C1.85837 15.2416 2.65003 15.2416 3.13337 14.7499L11.7334 6.15825C12.0417 6.26658 12.3667 6.33325 12.7084 6.33325Z" fill="white"/>
</svg>
