<svg width="20" height="20" viewBox="0 0 20 20" fill="none" xmlns="http://www.w3.org/2000/svg">
<g clip-path="url(#clip0_452_525)">
<path d="M9.16683 15.0001H11.6668C12.1252 15.0001 12.5002 14.6251 12.5002 14.1667V5.00008C12.5002 4.54175 12.1252 4.16675 11.6668 4.16675H9.16683C8.7085 4.16675 8.3335 4.54175 8.3335 5.00008V14.1667C8.3335 14.6251 8.7085 15.0001 9.16683 15.0001ZM4.16683 15.0001H6.66683C7.12516 15.0001 7.50016 14.6251 7.50016 14.1667V5.00008C7.50016 4.54175 7.12516 4.16675 6.66683 4.16675H4.16683C3.7085 4.16675 3.3335 4.54175 3.3335 5.00008V14.1667C3.3335 14.6251 3.7085 15.0001 4.16683 15.0001ZM13.3335 5.00008V14.1667C13.3335 14.6251 13.7085 15.0001 14.1668 15.0001H16.6668C17.1252 15.0001 17.5002 14.6251 17.5002 14.1667V5.00008C17.5002 4.54175 17.1252 4.16675 16.6668 4.16675H14.1668C13.7085 4.16675 13.3335 4.54175 13.3335 5.00008Z" fill="white"/>
</g>
<defs>
<clipPath id="clip0_452_525">
<rect width="20" height="20" fill="white"/>
</clipPath>
</defs>
</svg>
